<svg xmlns="http://www.w3.org/2000/svg" width="102.5" height="102.5" viewBox="0 0 102.5 102.5">
  <g id="Group_300" data-name="Group 300" transform="translate(0)">
    <rect id="Rectangle_11" data-name="Rectangle 11" width="102.5" height="102.5" transform="translate(0)" fill="#16244c"/>
    <g id="Group_12" data-name="Group 12">
      <path id="Path_9" data-name="Path 9" d="M51.11,30.179l-18.8,18.858A18.271,18.271,0,0,0,33,51.026c.194.465.406.931.633,1.385.116.224.235.451.361.678.071.127.142.25.216.372l16.915-16.97L68.277,53.472a19.15,19.15,0,0,0,1.9-4.412Z" fill="#fff"/>
      <path id="Path_10" data-name="Path 10" d="M76.146,54.969A27.389,27.389,0,0,1,73.86,59l1.456,1.442V79.987H58.792l-2.8,3.9a5.317,5.317,0,0,1-.471.574H79.785V58.574Z" fill="#fff"/>
      <path id="Path_11" data-name="Path 11" d="M43.7,79.987H27.184V60.514l1.478-1.482A27.415,27.415,0,0,1,26.369,55l-3.654,3.664v25.79H46.977a5.889,5.889,0,0,1-.477-.578Z" fill="#fff"/>
      <path id="Path_12" data-name="Path 12" d="M76.756,42.9c-.012-.437-.033-.875-.066-1.3-.016-.216-.036-.432-.058-.644a25.269,25.269,0,0,0-.523-3.15c-.088-.389-.192-.789-.315-1.224-.114-.4-.24-.805-.373-1.2-.068-.2-.136-.391-.207-.585-.139-.379-.292-.768-.458-1.161-.082-.189-.164-.378-.249-.567-.344-.757-.723-1.5-1.127-2.2-.1-.18-.208-.357-.316-.534a25.574,25.574,0,0,0-1.749-2.522c-.377-.478-.775-.95-1.187-1.4-.271-.3-.556-.6-.844-.886s-.6-.581-.888-.845-.6-.532-.925-.8c-.307-.253-.63-.508-.964-.758A25.5,25.5,0,0,0,25.733,43.559a25.342,25.342,0,0,0,4.78,14.871L48.015,82.8a4.146,4.146,0,0,0,.466.54A4,4,0,0,0,50.5,84.384c.092.018.186.034.275.044a3.965,3.965,0,0,0,.949,0c.093-.011.186-.027.287-.046a3.985,3.985,0,0,0,2.025-1.065,4.033,4.033,0,0,0,.449-.522l17.5-24.366a25.229,25.229,0,0,0,4.473-10.894c.1-.647.179-1.311.231-1.976s.077-1.347.077-2c0-.22,0-.439-.009-.654M51.249,22a21.538,21.538,0,0,1,14.1,5.265,21.855,21.855,0,0,1,2.2,2.193c.226.263.447.529.659.8.323.411.633.835.919,1.26.1.145.194.291.286.432a21.61,21.61,0,0,1,1.7,3.229c.069.161.134.323.2.486a21.473,21.473,0,0,1,1.5,7.9q0,.429-.015.851a21.406,21.406,0,0,1-4.023,11.715l-17.5,24.367h-.046l-17.5-24.365a22.017,22.017,0,0,1-1.353-2.136c-.137-.246-.267-.494-.393-.741-.249-.495-.482-1.006-.692-1.519A21.58,21.58,0,0,1,51.249,22" fill="#f2b98a"/>
      <rect id="Rectangle_12" data-name="Rectangle 12" width="0.796" height="14.427" transform="translate(50.848 34.778)" fill="#fff"/>
      <rect id="Rectangle_13" data-name="Rectangle 13" width="0.796" height="0.781" transform="translate(50.848 33.384)" fill="#16244c"/>
      <path id="Path_13" data-name="Path 13" d="M56.711,57.628H45.782a5.464,5.464,0,1,1,10.929,0" fill="#fff"/>
      <path id="Path_14" data-name="Path 14" d="M48.782,58.682h4.93a2.465,2.465,0,1,1-4.93,0" fill="#f2b98a"/>
      <path id="Path_15" data-name="Path 15" d="M52.484,52.764a1.238,1.238,0,0,1-2.476,0V49.476a1.238,1.238,0,0,1,2.476,0Z" fill="#fff"/>
    </g>
  </g>
</svg>
