<svg xmlns="http://www.w3.org/2000/svg" width="229.665" height="60.87" viewBox="0 0 229.665 60.87">
  <g id="Group_284" data-name="Group 284" transform="translate(-71 -3774.559)">
    <g id="Group_282" data-name="Group 282">
      <path id="Path_215" data-name="Path 215" d="M150.91,3804.61a10.976,10.976,0,0,1,3.366,2.349l-3.131,3.131a5.391,5.391,0,0,0-4.383-1.878q-2.818,0-3.6,1.33a1.833,1.833,0,0,0,0,2.271q.783.938,3.6,1.408a11.659,11.659,0,0,1,5.4,1.957,5.879,5.879,0,0,1,2.426,5.244,6.019,6.019,0,0,1-2.59,4.853,9.491,9.491,0,0,1-6.036,2.036,13.908,13.908,0,0,1-5.463-.94,11.83,11.83,0,0,1-3.757-2.505l3.131-3.131q1.565,1.879,5.322,2.192,3.132,0,3.906-1.33a2.476,2.476,0,0,0,0-2.661q-.775-1.332-3.906-1.645a12.611,12.611,0,0,1-5.166-1.722q-2.348-1.409-2.348-4.853a5.845,5.845,0,0,1,2.669-5,9.4,9.4,0,0,1,5.487-1.887A13.115,13.115,0,0,1,150.91,3804.61Z" fill="#f2b98a"/>
      <path id="Path_216" data-name="Path 216" d="M158.362,3833.886v-21.777l4.384-.469v1.253a5.93,5.93,0,0,1,3.444-1.253,7.306,7.306,0,0,1,5.714,2.348,8.16,8.16,0,0,1,0,10.958,7.3,7.3,0,0,1-5.714,2.349,5.166,5.166,0,0,1-3.444-1.269v7.875Zm4.384-15.827v2.536q.312,2.629,3.287,3.084,3.757-.3,4.227-3.9-.156-4.383-4.227-4.54Q163.059,3815.711,162.746,3818.059Z" fill="#f2b98a"/>
      <path id="Path_217" data-name="Path 217" d="M177.445,3813.534a12.629,12.629,0,0,1,6.888-1.879,5.6,5.6,0,0,1,6.106,6.263v9.393h-4.383v-1.252a6.468,6.468,0,0,1-3.444,1.252,7.1,7.1,0,0,1-4.7-1.332,4.569,4.569,0,0,1-1.565-3.678,5.838,5.838,0,0,1,1.479-3.913q1.479-1.723,4.783-1.723a8.03,8.03,0,0,1,3.444.939v-.469q-.031-1.722-2.505-1.879a8.554,8.554,0,0,0-4.384.939Zm8.611,9.08v-1.769q-.627-1.206-2.975-1.205-2.817.314-2.974,2.191.156,1.863,2.974,2.02Q185.43,3823.851,186.056,3822.614Z" fill="#f2b98a"/>
      <path id="Path_218" data-name="Path 218" d="M195.9,3825.354a6.312,6.312,0,0,1-2.348-5.088V3818.7a6.313,6.313,0,0,1,2.348-5.088,8.327,8.327,0,0,1,5.5-1.957,8.2,8.2,0,0,1,6.247,2.662l-3.131,2.348a4.343,4.343,0,0,0-3.131-1.409,3.647,3.647,0,0,0-2.74,1.253,4.2,4.2,0,0,0-1.174,2.974,4.363,4.363,0,0,0,1.1,2.974,3.569,3.569,0,0,0,2.818,1.253,4.343,4.343,0,0,0,3.131-1.409l3.131,2.348a8.675,8.675,0,0,1-11.742.705Z" fill="#f2b98a"/>
      <path id="Path_219" data-name="Path 219" d="M209.945,3819.483a7.508,7.508,0,0,1,7.827-7.828,7.112,7.112,0,0,1,5.479,2.193,7.954,7.954,0,0,1,2.036,5.635v1.566h-10.8a2.764,2.764,0,0,0,1.1,1.957,3.553,3.553,0,0,0,2.191.7,6.481,6.481,0,0,0,3.914-1.253l2.5,2.5q-1.723,2.348-6.419,2.349a7.507,7.507,0,0,1-7.827-7.828Zm10.019-3.522a3.759,3.759,0,0,0-4.383,0,2.31,2.31,0,0,0-.94,1.957H220.9A2.309,2.309,0,0,0,219.964,3815.961Z" fill="#f2b98a"/>
      <path id="Path_220" data-name="Path 220" d="M240.049,3827.311v-23.483h1.566l10.176,11.585,10.191-11.585h1.565v23.483h-4.7l-.016-13.621-7.044,7.829-7.045-7.829v13.621Z" fill="#fff"/>
      <path id="Path_221" data-name="Path 221" d="M268.165,3813.534a12.627,12.627,0,0,1,6.888-1.879,5.6,5.6,0,0,1,6.106,6.263v9.393h-4.384v-1.252a6.462,6.462,0,0,1-3.443,1.252,7.1,7.1,0,0,1-4.7-1.332,4.566,4.566,0,0,1-1.566-3.678,5.834,5.834,0,0,1,1.48-3.913q1.479-1.723,4.783-1.723a8.022,8.022,0,0,1,3.443.939v-.469q-.031-1.722-2.5-1.879a8.554,8.554,0,0,0-4.384.939Zm8.61,9.08v-1.769q-.625-1.206-2.974-1.205-2.818.314-2.974,2.191.156,1.863,2.974,2.02Q276.15,3823.851,276.775,3822.614Z" fill="#fff"/>
      <path id="Path_222" data-name="Path 222" d="M285.01,3833.886v-21.777l4.383-.469v1.253a5.932,5.932,0,0,1,3.444-1.253,7.3,7.3,0,0,1,5.714,2.348,8.157,8.157,0,0,1,0,10.958,7.3,7.3,0,0,1-5.714,2.349,5.168,5.168,0,0,1-3.444-1.269v7.875Zm4.383-15.827v2.536q.313,2.629,3.288,3.084a4.133,4.133,0,0,0,4.227-3.9q-.157-4.383-4.227-4.54Q289.706,3815.711,289.393,3818.059Z" fill="#fff"/>
    </g>
    <g id="Group_283" data-name="Group 283">
      <path id="Path_223" data-name="Path 223" d="M97.026,3785.681,79.8,3802.965a16.591,16.591,0,0,0,.631,1.823c.178.427.372.854.58,1.27.107.2.216.413.331.621.065.117.13.229.2.341l15.5-15.554,15.717,15.564a17.564,17.564,0,0,0,1.742-4.043Z" fill="#fff"/>
      <path id="Path_224" data-name="Path 224" d="M119.973,3808.4a25.156,25.156,0,0,1-2.1,3.693l1.334,1.321v17.916H104.067l-2.566,3.57a4.865,4.865,0,0,1-.431.526h22.238v-23.722Z" fill="#fff"/>
      <path id="Path_225" data-name="Path 225" d="M90.237,3831.333H75.1v-17.848l1.355-1.358a25.131,25.131,0,0,1-2.1-3.693L71,3811.792v23.637H93.237a5.3,5.3,0,0,1-.437-.529Z" fill="#fff"/>
      <path id="Path_226" data-name="Path 226" d="M120.531,3797.343c-.01-.4-.029-.8-.06-1.194-.015-.2-.033-.4-.053-.59a23.139,23.139,0,0,0-.479-2.887c-.082-.357-.176-.723-.289-1.122-.1-.369-.22-.738-.343-1.1-.062-.179-.124-.358-.189-.536-.128-.347-.268-.7-.42-1.064-.074-.173-.15-.347-.228-.52-.315-.694-.663-1.372-1.033-2.013-.094-.165-.191-.327-.289-.489a23.77,23.77,0,0,0-1.6-2.312c-.346-.438-.71-.87-1.088-1.286-.248-.273-.51-.547-.774-.812s-.546-.532-.813-.774-.549-.488-.848-.736c-.282-.232-.579-.466-.884-.7a23.383,23.383,0,0,0-32.991,32.363l16.042,22.333a3.747,3.747,0,0,0,.428.5,3.664,3.664,0,0,0,1.846.961c.085.016.171.031.252.04a3.61,3.61,0,0,0,.438.026,3.652,3.652,0,0,0,.432-.025c.085-.01.171-.025.263-.042a3.656,3.656,0,0,0,1.856-.977,3.588,3.588,0,0,0,.412-.478l16.042-22.333a23.128,23.128,0,0,0,4.1-9.984c.093-.593.164-1.2.212-1.811s.07-1.235.07-1.836c0-.2,0-.4-.009-.6m-23.378-19.162a19.739,19.739,0,0,1,12.926,4.826,20.08,20.08,0,0,1,2.012,2.01c.208.241.409.484.6.733.3.377.58.765.843,1.155.09.133.178.266.262.4a19.819,19.819,0,0,1,1.562,2.959c.063.148.123.3.182.446a19.649,19.649,0,0,1,1.145,4.233,19.891,19.891,0,0,1,.227,3.006c0,.262,0,.522-.014.779a19.613,19.613,0,0,1-3.686,10.738l-16.042,22.333h-.042l-16.044-22.331a20.352,20.352,0,0,1-1.24-1.958c-.124-.226-.244-.453-.36-.679-.228-.454-.442-.922-.634-1.392a19.778,19.778,0,0,1,18.3-27.253" fill="#f2b98a"/>
      <rect id="Rectangle_89" data-name="Rectangle 89" width="0.73" height="13.223" transform="translate(96.786 3789.897)" fill="#fff"/>
      <rect id="Rectangle_90" data-name="Rectangle 90" width="0.73" height="0.716" transform="translate(96.786 3788.619)" fill="#16244c"/>
      <path id="Path_227" data-name="Path 227" d="M102.159,3810.84H92.142a5.008,5.008,0,1,1,10.017,0" fill="#fff"/>
      <path id="Path_228" data-name="Path 228" d="M94.892,3811.806H99.41a2.259,2.259,0,1,1-4.518,0" fill="#f2b98a"/>
      <path id="Path_229" data-name="Path 229" d="M98.285,3806.381a1.135,1.135,0,1,1-2.269,0v-3.013a1.135,1.135,0,0,1,2.269,0Z" fill="#fff"/>
    </g>
  </g>
</svg>
