<svg xmlns="http://www.w3.org/2000/svg" width="260.744" height="102.5" viewBox="0 0 260.744 102.5">
  <g id="Group_301" data-name="Group 301" transform="translate(0)">
    <g id="Group_11" data-name="Group 11">
      <path id="Path_1" data-name="Path 1" d="M139.3,42.243a8.884,8.884,0,0,1,2.729,1.9l-2.539,2.54a4.37,4.37,0,0,0-3.554-1.524q-2.286,0-2.92,1.079a1.484,1.484,0,0,0,0,1.841,5.015,5.015,0,0,0,2.92,1.143,9.447,9.447,0,0,1,4.379,1.587,4.765,4.765,0,0,1,1.968,4.252,4.882,4.882,0,0,1-2.1,3.936,7.7,7.7,0,0,1-4.894,1.65,11.3,11.3,0,0,1-4.431-.761,9.591,9.591,0,0,1-3.046-2.032l2.539-2.539a6.035,6.035,0,0,0,4.316,1.778q2.539,0,3.167-1.079a2.011,2.011,0,0,0,0-2.159q-.627-1.079-3.167-1.333a10.229,10.229,0,0,1-4.189-1.4,4.214,4.214,0,0,1-1.9-3.936,4.74,4.74,0,0,1,2.165-4.056,7.622,7.622,0,0,1,4.449-1.53A10.627,10.627,0,0,1,139.3,42.243Z" fill="#f2b98a"/>
      <path id="Path_2" data-name="Path 2" d="M145.344,65.983V48.324l3.554-.381v1.016a4.811,4.811,0,0,1,2.793-1.016,5.921,5.921,0,0,1,4.634,1.9,6.616,6.616,0,0,1,0,8.886,5.921,5.921,0,0,1-4.634,1.9A4.2,4.2,0,0,1,148.9,59.61V66ZM148.9,53.148v2.057a2.76,2.76,0,0,0,2.666,2.5,3.35,3.35,0,0,0,3.428-3.161q-.126-3.555-3.428-3.682Q149.154,51.244,148.9,53.148Z" fill="#f2b98a"/>
      <path id="Path_3" data-name="Path 3" d="M160.819,49.479a10.244,10.244,0,0,1,5.586-1.523,4.54,4.54,0,0,1,4.951,5.078v7.617H167.8V59.636a5.245,5.245,0,0,1-2.793,1.015,5.757,5.757,0,0,1-3.809-1.079,3.706,3.706,0,0,1-1.269-2.983,4.74,4.74,0,0,1,1.2-3.174,4.857,4.857,0,0,1,3.879-1.4,6.492,6.492,0,0,1,2.793.761V52.4q-.025-1.4-2.031-1.523a6.929,6.929,0,0,0-3.555.762Zm6.983,7.364V55.408q-.509-.978-2.412-.977-2.286.253-2.412,1.777.126,1.51,2.412,1.638Q167.293,57.846,167.8,56.843Z" fill="#f2b98a"/>
      <path id="Path_4" data-name="Path 4" d="M175.787,59.064a5.119,5.119,0,0,1-1.9-4.126V53.669a5.119,5.119,0,0,1,1.9-4.126,6.749,6.749,0,0,1,4.456-1.587,6.645,6.645,0,0,1,5.066,2.158l-2.539,1.905a3.52,3.52,0,0,0-2.54-1.143,2.953,2.953,0,0,0-2.221,1.016,3.405,3.405,0,0,0-.952,2.412,3.543,3.543,0,0,0,.888,2.412,2.9,2.9,0,0,0,2.285,1.015,3.519,3.519,0,0,0,2.54-1.142l2.539,1.9a7.036,7.036,0,0,1-9.522.571Z" fill="#f2b98a"/>
      <path id="Path_5" data-name="Path 5" d="M187.175,54.3a6.087,6.087,0,0,1,6.347-6.348,5.771,5.771,0,0,1,4.444,1.777,6.453,6.453,0,0,1,1.65,4.571v1.269h-8.76a2.242,2.242,0,0,0,.889,1.587,2.879,2.879,0,0,0,1.777.571,5.258,5.258,0,0,0,3.174-1.015l2.032,2.031q-1.4,1.9-5.206,1.9a6.087,6.087,0,0,1-6.347-6.347Zm8.125-2.857a3.052,3.052,0,0,0-3.555,0,1.872,1.872,0,0,0-.762,1.587h5.079A1.872,1.872,0,0,0,195.3,51.447Z" fill="#f2b98a"/>
      <path id="Path_6" data-name="Path 6" d="M211.588,60.651V41.608h1.269L221.109,51l8.265-9.395h1.27V60.651h-3.809l-.013-11.045-5.713,6.348L215.4,49.606V60.651Z" fill="#3b3b5f"/>
      <path id="Path_7" data-name="Path 7" d="M234.389,49.479a10.241,10.241,0,0,1,5.586-1.523,4.54,4.54,0,0,1,4.951,5.078v7.617h-3.555V59.636a5.242,5.242,0,0,1-2.793,1.015,5.754,5.754,0,0,1-3.808-1.079,3.7,3.7,0,0,1-1.27-2.983,4.736,4.736,0,0,1,1.2-3.174,4.854,4.854,0,0,1,3.878-1.4,6.492,6.492,0,0,1,2.793.761V52.4q-.025-1.4-2.031-1.523a6.929,6.929,0,0,0-3.555.762Zm6.982,7.364V55.408q-.507-.978-2.412-.977-2.284.253-2.412,1.777.126,1.51,2.412,1.638Q240.864,57.846,241.371,56.843Z" fill="#3b3b5f"/>
      <path id="Path_8" data-name="Path 8" d="M248.049,65.983V48.324l3.555-.381v1.016a4.806,4.806,0,0,1,2.792-1.016,5.921,5.921,0,0,1,4.634,1.9,6.616,6.616,0,0,1,0,8.886,5.921,5.921,0,0,1-4.634,1.9A4.193,4.193,0,0,1,251.6,59.61V66ZM251.6,53.148v2.057a2.759,2.759,0,0,0,2.666,2.5,3.349,3.349,0,0,0,3.427-3.161q-.126-3.555-3.427-3.682Q251.858,51.244,251.6,53.148Z" fill="#3b3b5f"/>
    </g>
    <g id="Group_300" data-name="Group 300">
      <rect id="Rectangle_11" data-name="Rectangle 11" width="102.5" height="102.5" transform="translate(0)" fill="#16244c"/>
      <g id="Group_12" data-name="Group 12">
        <path id="Path_9" data-name="Path 9" d="M51.11,30.179l-18.8,18.858A18.271,18.271,0,0,0,33,51.026c.194.465.406.931.633,1.385.116.224.235.451.361.678.071.127.142.25.216.372l16.915-16.97L68.277,53.472a19.15,19.15,0,0,0,1.9-4.412Z" fill="#fff"/>
        <path id="Path_10" data-name="Path 10" d="M76.146,54.969A27.389,27.389,0,0,1,73.86,59l1.456,1.442V79.987H58.792l-2.8,3.9a5.317,5.317,0,0,1-.471.574H79.785V58.574Z" fill="#fff"/>
        <path id="Path_11" data-name="Path 11" d="M43.7,79.987H27.184V60.514l1.478-1.482A27.415,27.415,0,0,1,26.369,55l-3.654,3.664v25.79H46.977a5.889,5.889,0,0,1-.477-.578Z" fill="#fff"/>
        <path id="Path_12" data-name="Path 12" d="M76.756,42.9c-.012-.437-.033-.875-.066-1.3-.016-.216-.036-.432-.058-.644a25.269,25.269,0,0,0-.523-3.15c-.088-.389-.192-.789-.315-1.224-.114-.4-.24-.805-.373-1.2-.068-.2-.136-.391-.207-.585-.139-.379-.292-.768-.458-1.161-.082-.189-.164-.378-.249-.567-.344-.757-.723-1.5-1.127-2.2-.1-.18-.208-.357-.316-.534a25.574,25.574,0,0,0-1.749-2.522c-.377-.478-.775-.95-1.187-1.4-.271-.3-.556-.6-.844-.886s-.6-.581-.888-.845-.6-.532-.925-.8c-.307-.253-.63-.508-.964-.758A25.5,25.5,0,0,0,25.733,43.559a25.342,25.342,0,0,0,4.78,14.871L48.015,82.8a4.146,4.146,0,0,0,.466.54A4,4,0,0,0,50.5,84.384c.092.018.186.034.275.044a3.965,3.965,0,0,0,.949,0c.093-.011.186-.027.287-.046a3.985,3.985,0,0,0,2.025-1.065,4.033,4.033,0,0,0,.449-.522l17.5-24.366a25.229,25.229,0,0,0,4.473-10.894c.1-.647.179-1.311.231-1.976s.077-1.347.077-2c0-.22,0-.439-.009-.654M51.249,22a21.538,21.538,0,0,1,14.1,5.265,21.855,21.855,0,0,1,2.2,2.193c.226.263.447.529.659.8.323.411.633.835.919,1.26.1.145.194.291.286.432a21.61,21.61,0,0,1,1.7,3.229c.069.161.134.323.2.486a21.473,21.473,0,0,1,1.5,7.9q0,.429-.015.851a21.406,21.406,0,0,1-4.023,11.715l-17.5,24.367h-.046l-17.5-24.365a22.017,22.017,0,0,1-1.353-2.136c-.137-.246-.267-.494-.393-.741-.249-.495-.482-1.006-.692-1.519A21.58,21.58,0,0,1,51.249,22" fill="#f2b98a"/>
        <rect id="Rectangle_12" data-name="Rectangle 12" width="0.796" height="14.427" transform="translate(50.848 34.778)" fill="#fff"/>
        <rect id="Rectangle_13" data-name="Rectangle 13" width="0.796" height="0.781" transform="translate(50.848 33.384)" fill="#16244c"/>
        <path id="Path_13" data-name="Path 13" d="M56.711,57.628H45.782a5.464,5.464,0,1,1,10.929,0" fill="#fff"/>
        <path id="Path_14" data-name="Path 14" d="M48.782,58.682h4.93a2.465,2.465,0,1,1-4.93,0" fill="#f2b98a"/>
        <path id="Path_15" data-name="Path 15" d="M52.484,52.764a1.238,1.238,0,0,1-2.476,0V49.476a1.238,1.238,0,0,1,2.476,0Z" fill="#fff"/>
      </g>
    </g>
  </g>
</svg>
